HIERARCHY
ROOT root
{
	OFFSET 0.000000 0.000000 0.000000
	CHANNELS 6 Xposition Yposition Zposition Zrotation Yrotation Xrotation
	JOINT lhip
	{
		OFFSET 0.058581 -0.082280 -0.017664
		CHANNELS 3 Zrotation Yrotation Xrotation
		JOINT lknee
		{
			OFFSET 0.043451 -0.386469 0.008037
			CHANNELS 3 Zrotation Yrotation Xrotation
			JOINT lankle
			{
				OFFSET -0.014790 -0.426874 -0.037428
				CHANNELS 3 Zrotation Yrotation Xrotation
				JOINT ltoe
				{
					OFFSET 0.041054 -0.060286 0.122042
					CHANNELS 3 Zrotation Yrotation Xrotation
					End Site
					{
						OFFSET 0.000000 0.000000 0.000000
					}
				}
			}
		}
	}
	JOINT rhip
	{
		OFFSET -0.060310 -0.090513 -0.013543
		CHANNELS 3 Zrotation Yrotation Xrotation
		JOINT rknee
		{
			OFFSET -0.043257 -0.383688 -0.004843
			CHANNELS 3 Zrotation Yrotation Xrotation
			JOINT rankle
			{
				OFFSET 0.019056 -0.420046 -0.034562
				CHANNELS 3 Zrotation Yrotation Xrotation
				JOINT rtoe
				{
					OFFSET -0.034840 -0.062106 0.130323
					CHANNELS 3 Zrotation Yrotation Xrotation
					End Site
					{
						OFFSET 0.000000 0.000000 0.000000
					}
				}
			}
		}
	}
	JOINT lowerback
	{
		OFFSET 0.004439 0.124404 -0.038385
		CHANNELS 3 Zrotation Yrotation Xrotation
		JOINT upperback
		{
			OFFSET 0.004488 0.137956 0.026820
			CHANNELS 3 Zrotation Yrotation Xrotation
			JOINT chest
			{
				OFFSET -0.002265 0.056032 0.002855
				CHANNELS 3 Zrotation Yrotation Xrotation
				JOINT lowerneck
				{
					OFFSET -0.013390 0.211636 -0.033468
					CHANNELS 3 Zrotation Yrotation Xrotation
					JOINT upperneck
					{
						OFFSET 0.010113 0.088937 0.050410
						CHANNELS 3 Zrotation Yrotation Xrotation
						End Site
						{
							OFFSET 0.000000 0.000000 0.000000
						}
					}
				}
				JOINT lclavicle
				{
					OFFSET 0.071702 0.114000 -0.018898
					CHANNELS 3 Zrotation Yrotation Xrotation
					JOINT lshoulder
					{
						OFFSET 0.122921 0.045205 -0.019046
						CHANNELS 3 Zrotation Yrotation Xrotation
						JOINT lelbow
						{
							OFFSET 0.255332 -0.015649 -0.022946
							CHANNELS 3 Zrotation Yrotation Xrotation
							JOINT lwrist
							{
								OFFSET 0.265709 0.012698 -0.007375
								CHANNELS 3 Zrotation Yrotation Xrotation
								End Site
								{
									OFFSET 0.000000 0.000000 0.000000
								}
							}
						}
					}
				}
				JOINT rclavicle
				{
					OFFSET -0.082954 0.112472 -0.023707
					CHANNELS 3 Zrotation Yrotation Xrotation
					JOINT rshoulder
					{
						OFFSET -0.113228 0.046853 -0.008472
						CHANNELS 3 Zrotation Yrotation Xrotation
						JOINT relbow
						{
							OFFSET -0.260127 -0.014369 -0.031269
							CHANNELS 3 Zrotation Yrotation Xrotation
							JOINT rwrist
							{
								OFFSET -0.269108 0.006794 -0.006027
								CHANNELS 3 Zrotation Yrotation Xrotation
								End Site
								{
									OFFSET 0.000000 0.000000 0.000000
								}
							}
						}
					}
				}
			}
		}
	}
}
MOTION
Frames: 14
Frame Time: 0.033333
-0.433536 -0.093306 0.884111 -146.082611 -7.473576 109.218784 6.062254 -1.096987 6.205440 -10.025811 -16.425852 31.290467 -10.091437 7.887052 -4.514356 0.000000 -0.000000 0.000000 -6.919103 -5.241132 -66.672212 2.599742 -27.736303 56.223784 4.714807 0.693900 -19.597856 0.000000 -0.000000 0.000000 -1.352562 -9.497602 28.505699 -0.021073 1.572620 0.557514 -0.974303 -3.338909 2.101472 0.753142 -3.149017 -13.847261 4.123996 -15.844940 -11.009649 -28.741420 2.560638 1.412918 -35.276098 -10.378911 -0.161280 79.844121 -49.745749 -88.043833 4.142983 -10.024718 -43.037854 27.801623 3.452335 2.355938 47.477873 6.435375 7.596592 -38.034889 47.640433 -34.082377 -20.015236 10.198560 3.714289 
-0.494950 0.012288 0.876657 -147.629815 -8.384364 108.818899 4.161903 -5.217462 8.457267 -6.932478 -9.806815 41.602899 -6.916055 12.970544 -6.396317 0.000000 -0.000000 0.000000 -4.489040 -1.793260 -62.803526 4.408288 -27.804308 42.561879 2.230012 -0.445871 -13.181719 0.000000 -0.000000 0.000000 0.122432 -8.548877 25.558218 -0.712632 4.089878 0.536778 -1.154767 -2.475476 3.717115 0.607628 -7.930113 -11.799567 4.437532 -15.380606 -12.580818 -29.127180 11.761827 1.701065 -41.647292 -6.270566 -0.700424 94.477181 -48.204988 -99.748369 1.758950 -13.540582 -49.853631 26.209810 -1.506283 2.845324 48.167978 6.144624 6.286597 -40.410944 48.853678 -37.002144 -19.466392 8.839179 -0.724088 
-0.552095 0.119003 0.861777 -148.365091 -11.674613 106.580749 3.601641 -3.676602 5.705096 -8.824542 -6.442243 60.329810 -4.983648 12.297023 -7.384308 0.000000 -0.000000 0.000000 -0.746592 -1.774462 -57.410355 -1.589847 -25.311305 52.867939 -12.137644 -9.978090 -25.523489 0.000000 -0.000000 0.000000 -1.204835 -5.015805 25.076629 -1.511258 6.289436 -0.840739 -1.213852 -0.994033 5.550152 0.603834 -10.849085 -8.857976 5.762872 -17.967164 -11.174470 -25.737088 16.808260 2.280528 -45.082479 -2.837404 -4.107591 103.517942 -48.355537 -103.362558 2.959630 -11.517027 -52.910736 24.450309 -4.779535 2.698588 52.044521 2.395857 3.033722 -43.012246 49.734037 -36.890650 -20.008407 8.135527 -2.968873 
-0.598849 0.218114 0.863023 -149.974743 -11.798898 106.498484 5.578079 -3.423272 -5.017973 -8.636488 0.062342 79.095376 -2.515721 13.170769 -9.963086 0.000000 -0.000000 0.000000 -0.322645 1.522679 -52.246424 -2.854025 -21.540325 59.581184 -10.687006 -13.124295 -31.711889 0.000000 -0.000000 0.000000 -0.297767 -2.156898 24.647304 -1.970904 9.274718 -1.480281 -1.780806 1.485204 6.351686 0.267680 -13.998428 -8.601505 6.737059 -21.003677 -11.254684 -24.574250 19.335728 0.804717 -45.264463 -2.732991 -6.333612 105.087297 -47.074126 -102.962316 4.897041 -8.428470 -52.762290 23.576724 -6.221376 1.554218 54.295884 1.677489 1.502548 -41.352807 47.282807 -35.561606 -21.004557 6.684273 -5.830356 
-0.641019 0.320393 0.880162 -151.106343 -11.136103 106.001307 6.937318 -5.147095 -18.172550 -9.171207 4.273524 89.667008 -0.257940 10.559127 -12.876078 0.000000 -0.000000 0.000000 2.259578 1.102212 -40.184358 -2.191429 -20.309763 55.841263 -10.201363 -10.691090 -35.281862 0.000000 -0.000000 0.000000 0.460577 1.519308 25.398714 -2.117918 9.246793 -1.753858 -1.379625 3.639443 5.811818 -0.010276 -15.396861 -7.840206 7.453107 -22.572445 -11.304468 -25.175368 18.806516 -1.375913 -45.391663 -3.364751 -6.783371 106.180801 -44.416795 -103.408426 5.817147 -7.634879 -53.631071 23.732414 -3.942347 1.936171 53.853378 3.691283 -0.190419 -36.359451 43.078123 -32.924425 -20.035832 4.331536 -9.250474 
-0.678168 0.428821 0.902991 -151.662098 -11.807517 105.872587 6.996781 -7.921226 -31.454211 -7.076279 6.729444 89.710692 1.095562 10.344220 -13.819663 0.000000 -0.000000 0.000000 3.934886 -2.505412 -27.341027 0.367359 -15.998324 48.004410 -7.556739 -6.871751 -32.276015 0.000000 -0.000000 0.000000 -0.521284 6.527290 25.289850 -2.194891 7.455573 -2.811884 -0.453860 4.576546 5.034011 -0.702296 -17.462679 -6.523816 8.240492 -23.580576 -8.657076 -24.777623 16.408966 -3.018320 -44.317974 -6.259096 -6.818786 103.927722 -42.728442 -100.810329 7.574532 -5.986375 -50.884286 23.401242 -1.533012 1.632259 54.922681 4.803206 0.599522 -32.527343 39.398613 -30.074958 -18.338882 3.532823 -9.669829 
-0.714715 0.544129 0.926765 -152.911971 -12.359884 105.657001 7.705993 -10.580923 -41.073448 -3.957320 9.613444 79.991452 2.462349 10.241378 -14.028493 0.000000 -0.000000 0.000000 3.557964 -4.980871 -14.701843 1.947747 -11.949405 39.138218 -1.356319 -1.059972 -21.647061 0.000000 -0.000000 0.000000 -2.032647 10.939470 25.275492 -2.679486 5.817705 -3.818038 -0.280443 5.828252 4.724742 -1.164169 -16.730594 -6.929676 9.399140 -24.499277 -7.593145 -24.527967 13.184992 -6.045011 -40.273027 -9.984190 -5.586290 98.317488 -43.009819 -98.267442 6.387821 -7.207570 -48.936074 23.719026 0.127304 0.461366 57.735624 5.380934 4.385630 -32.436965 37.648148 -29.919178 -18.592502 4.499912 -7.075627 
-0.752723 0.662598 0.945205 -153.303890 -14.234709 105.954214 7.848773 -13.858656 -47.510474 -5.000030 12.298651 62.797100 2.690644 8.087633 -13.721732 0.000000 -0.000000 0.000000 0.851076 -6.465823 -4.230926 1.634678 -9.295939 30.826960 7.948099 4.408281 -3.951795 0.000000 -0.000000 0.000000 -4.942310 15.288618 23.610258 -2.810436 3.354637 -4.002288 -0.132582 6.697695 3.640997 -2.538035 -15.884080 -5.217900 12.459060 -26.545394 -9.727818 -22.748841 8.664163 -7.476026 -36.840480 -14.301544 -3.542175 92.929025 -42.654615 -95.777897 5.923586 -7.562900 -44.878622 23.682808 1.376659 -0.044392 61.713671 4.575155 8.283305 -35.041295 38.320686 -31.667594 -18.786054 4.475331 -5.723230 
-0.790225 0.782976 0.954676 -151.810322 -15.332519 104.630165 6.148588 -15.726497 -48.668547 -8.636692 9.039484 43.050473 -0.231978 5.577318 -11.193538 0.000000 -0.000000 0.000000 0.678017 -7.377495 5.817444 -1.479778 -6.989939 25.339280 12.707153 4.105465 4.631245 0.000000 -0.000000 0.000000 -6.411521 17.611106 22.678261 -3.186825 1.031940 -3.948396 -0.105792 6.970075 2.709368 -3.224730 -15.017801 -3.727851 14.466656 -29.423672 -9.449580 -20.826222 3.624723 -8.091608 -34.054120 -18.251865 -2.460203 94.051809 -43.079630 -94.457598 4.344614 -9.196149 -41.040798 23.223750 3.620033 0.247460 64.674173 2.977066 10.183095 -36.145630 41.638677 -30.063071 -18.000014 4.463753 -9.021000 
-0.829059 0.900635 0.952331 -149.986427 -14.273578 102.245251 3.550817 -14.976031 -45.652276 -9.686312 5.005697 27.639342 -4.554828 2.665155 -10.622853 0.000000 -0.000000 0.000000 3.475815 -7.472161 11.050501 -5.787455 -5.363193 32.168247 11.457543 1.206925 1.626273 0.000000 -0.000000 0.000000 -6.705715 16.576511 22.346702 -3.183398 0.267092 -4.161842 -0.108713 7.057310 2.178961 -3.310126 -13.856660 -4.527343 14.255727 -30.742898 -6.576518 -20.013263 0.210777 -9.589510 -33.010198 -21.580269 -0.798910 105.944153 -45.473955 -98.014268 1.861220 -11.284843 -33.535839 22.955139 5.845656 0.205239 65.389972 1.400848 11.063545 -35.594371 46.577851 -24.400221 -14.415546 6.228799 -8.418734 
-0.869906 1.013107 0.939314 -147.182405 -13.340174 99.941192 -0.670110 -14.005838 -43.315027 -9.825240 3.926064 24.478544 -2.874862 1.039478 -11.097659 0.000000 -0.000000 0.000000 4.892859 -6.965666 12.109092 -6.544478 -5.180266 44.996073 11.540960 1.677706 -0.266318 0.000000 -0.000000 0.000000 -6.350329 14.099938 22.662883 -3.175957 -0.929653 -4.729313 -0.491197 6.627592 1.916812 -2.690536 -14.750515 -5.812132 14.287158 -29.284243 -4.290642 -19.921979 -3.691070 -11.459695 -33.585075 -24.301147 3.033798 124.983460 -47.846773 -107.833540 2.653810 -10.295718 -20.731184 22.499424 7.850106 -0.244581 65.738475 -0.873917 10.797754 -36.661504 52.363551 -22.001999 -12.535628 8.758837 -4.258450 
-0.909012 1.123074 0.919873 -146.914015 -12.533949 98.360995 -1.242353 -15.795922 -39.943260 -10.526464 6.253344 28.023845 6.845105 5.487533 -10.197542 0.000000 -0.000000 0.000000 2.251305 -6.407894 7.655418 -7.472888 -6.391275 63.518293 10.550468 -2.679068 -1.999649 0.000000 -0.000000 0.000000 -7.092608 12.841709 22.423864 -2.728281 -1.337590 -4.166279 -1.124706 5.283862 2.168252 -0.234226 -14.553065 -9.867484 14.235979 -27.305319 -2.713785 -21.408887 -7.438376 -11.679785 -31.764796 -27.356756 8.046828 145.472169 -51.061367 -124.343019 7.601279 -10.280114 -6.345737 23.134689 9.477206 -1.286315 64.889650 -2.433051 12.931234 -40.563458 55.862114 -26.651547 -14.163319 10.794991 -0.469826 
-0.944985 1.228676 0.901285 -148.169115 -10.299542 95.654850 -1.455899 -12.803183 -37.284755 -9.610501 5.957512 45.600299 9.174987 10.043947 -23.495121 0.000000 -0.000000 0.000000 0.470224 -4.079467 -0.260151 -7.570228 -5.916537 81.420014 4.730889 -10.717130 -7.802455 0.000000 -0.000000 0.000000 -6.858311 10.280723 24.497366 -1.605009 -1.579951 -3.804567 -1.037576 3.653948 2.825149 1.749736 -12.962430 -14.328424 13.433658 -23.386167 -2.369856 -20.622450 -11.617427 -9.531843 -32.405065 -24.959802 11.158357 165.759827 -57.049685 -137.364715 19.228323 -12.226486 -2.175408 23.045712 12.571097 -2.057584 63.565426 -2.367592 13.252320 -43.434878 58.256580 -29.662130 -16.036791 10.934444 -1.766306 
-0.977930 1.334246 0.895844 -150.301006 -9.113249 94.048018 -1.533527 -9.997195 -26.682386 -11.412970 2.857860 45.732479 10.568975 15.579323 -31.098265 0.000000 -0.000000 0.000000 -2.146343 -0.028554 -13.819604 -4.006801 -5.477178 92.527685 0.722471 -12.485653 -12.299292 0.000000 -0.000000 0.000000 -7.870571 6.622458 25.486146 -0.092332 -2.429195 -1.878873 -1.498863 0.954178 2.251643 4.042178 -6.613072 -18.590618 10.055685 -20.506487 -0.793874 -22.586497 -15.188347 -3.951471 -30.482485 -19.830114 14.117691 170.292069 -70.899827 -142.967623 27.458259 -16.749949 4.148001 25.516663 15.183448 -1.420013 62.425490 1.571478 15.047495 -42.892360 55.904429 -30.555173 -17.138570 11.709733 -0.723442 
